<?xml version="1.0" encoding="UTF-8"?>
<svg xmlns="http://www.w3.org/2000/svg" xmlns:xlink="http://www.w3.org/1999/xlink" width="120px" height="120px" viewBox="0 0 120 120" version="1.1">
<g id="surface1">
<path style=" stroke:none;fill-rule:nonzero;fill:rgb(0%,0%,0%);fill-opacity:1;" d="M 60.140625 82.195312 C 78.046875 82.195312 92.554688 76.921875 92.554688 70.453125 C 92.554688 69.421875 92.179688 68.4375 91.523438 67.5 L 81.609375 45.984375 C 78.070312 49.734375 69.726562 52.359375 60 52.359375 C 50.695312 52.359375 42.632812 49.945312 38.859375 46.429688 L 28.875 67.3125 C 28.125 68.320312 27.703125 69.375 27.703125 70.453125 C 27.726562 76.921875 42.234375 82.195312 60.140625 82.195312 Z M 116.789062 83.273438 L 98.882812 76.875 C 99 77.390625 99.070312 77.882812 99.070312 78.398438 C 99.070312 87.023438 81.585938 94.03125 60 94.03125 C 38.414062 94.03125 20.929688 87.023438 20.929688 78.398438 C 20.929688 77.53125 21.117188 76.664062 21.445312 75.773438 L 4.453125 81.539062 C 0.679688 83.414062 0.09375 86.835938 3.210938 89.132812 L 53.273438 117.398438 C 56.367188 119.71875 61.96875 120.070312 65.765625 118.171875 L 115.546875 90.867188 C 119.320312 88.96875 119.90625 85.570312 116.789062 83.273438 Z M 60.398438 40.21875 C 69.023438 40.21875 75.984375 37.429688 75.984375 33.984375 C 75.984375 33.28125 75.703125 32.625 75.164062 31.992188 L 60.726562 0.609375 L 45.867188 31.757812 C 45.210938 32.4375 44.835938 33.210938 44.835938 33.984375 C 44.835938 37.429688 51.796875 40.21875 60.398438 40.21875 Z M 60.398438 40.21875 "/>
</g>
</svg>
