<?xml version="1.0" encoding="UTF-8"?>
<svg xmlns="http://www.w3.org/2000/svg" xmlns:xlink="http://www.w3.org/1999/xlink" width="212px" height="259px" viewBox="0 0 106 129" version="1.1">
<g id="surface1">
<path style=" stroke:none;fill-rule:evenodd;fill:rgb(100%,100%,100%);fill-opacity:1;" d="M 26.378906 3.921875 C 27.449219 3.101562 28.953125 3.367188 30.148438 3.738281 C 33.652344 4.910156 36.765625 6.941406 39.710938 9.140625 C 40.988281 10.1875 42.207031 11.746094 44.058594 11.625 C 47.625 11.542969 51.191406 11.828125 54.652344 12.652344 C 56.835938 13.164062 59.082031 13.535156 61.207031 14.273438 C 61.289062 14.398438 61.472656 14.664062 61.554688 14.808594 C 58.875 14.539062 55.972656 14.644531 53.664062 16.164062 C 51.582031 17.417969 49.953125 19.695312 50.058594 22.179688 C 50.285156 24.460938 51.601562 26.617188 53.582031 27.808594 C 55.683594 29.0625 58.113281 29.65625 60.546875 29.863281 C 60.050781 31.976562 59.761719 34.257812 60.464844 36.371094 C 61.328125 38.980469 63.988281 40.851562 66.726562 40.851562 C 68.355469 40.910156 69.882812 40.171875 71.199219 39.332031 C 73.117188 38.058594 74.332031 36.042969 75.199219 33.96875 C 77.421875 36.1875 80.433594 37.832031 83.648438 37.726562 C 85.851562 37.75 87.890625 36.476562 89.148438 34.710938 C 90.222656 33.085938 90.386719 30.992188 89.871094 29.144531 C 89.253906 27.027344 87.851562 25.242188 86.304688 23.722656 C 88.222656 22.695312 90.097656 21.277344 90.859375 19.183594 C 91.519531 17.601562 91.355469 15.835938 90.757812 14.273438 C 92.117188 14.398438 93.765625 14.253906 94.816406 15.320312 C 95.683594 16.984375 95.703125 18.9375 95.703125 20.765625 C 95.660156 22.179688 95.703125 23.597656 95.476562 24.996094 C 94.796875 29.675781 93.683594 34.277344 92.242188 38.777344 C 92.074219 39.144531 92.117188 39.535156 92.28125 39.882812 C 93.640625 43.480469 94.011719 47.382812 93.664062 51.179688 C 93.703125 51.550781 93.394531 51.941406 92.980469 51.941406 C 91.292969 52.1875 89.519531 51.941406 87.832031 52.308594 C 86.964844 52.761719 87.148438 53.933594 87.996094 54.28125 C 89.539062 54.691406 91.210938 54.324219 92.753906 54.753906 L 92.878906 54.980469 C 92.796875 56.582031 92.179688 58.101562 91.621094 59.601562 C 91.417969 59.972656 91.355469 60.585938 90.839844 60.667969 C 89.828125 60.566406 88.800781 60.011719 87.789062 60.402344 C 87.292969 60.546875 87.210938 61.265625 87.5625 61.613281 C 88.160156 62.332031 89.167969 62.558594 89.890625 63.152344 C 89.003906 64.941406 87.789062 66.542969 86.367188 67.941406 C 85.046875 68.207031 83.996094 66.953125 82.679688 67.222656 C 82.183594 67.46875 82.058594 68.0625 82.183594 68.578125 C 82.65625 69.214844 83.359375 69.644531 83.976562 70.15625 C 80.183594 73.585938 74.992188 74.941406 70.027344 75.4375 C 64.585938 75.949219 59.101562 75.457031 53.746094 74.511719 C 47.398438 73.382812 41.132812 71.699219 35.15625 69.273438 C 32.210938 68.0625 29.242188 66.75 26.6875 64.796875 C 25.679688 64.015625 24.628906 63.175781 24.03125 62.023438 C 23.617188 61.039062 23.945312 59.929688 23.574219 58.945312 C 22.976562 57.300781 21.433594 56.007812 19.679688 55.78125 C 18.589844 55.597656 17.476562 55.84375 16.425781 56.128906 C 15.210938 54.261719 14.34375 52.144531 13.871094 49.96875 C 15.023438 49.640625 16.28125 49.90625 17.414062 49.496094 C 18.074219 48.960938 17.476562 48.078125 16.816406 47.894531 C 15.867188 47.628906 14.839844 47.710938 13.847656 47.605469 C 13.703125 47.503906 13.417969 47.339844 13.25 47.257812 C 12.859375 45.203125 12.695312 43.089844 12.921875 41.015625 C 14.632812 40.828125 16.179688 41.671875 17.828125 41.855469 C 18.464844 41.875 19.207031 40.992188 18.652344 40.460938 C 17.539062 39.246094 15.785156 39.1875 14.34375 38.671875 C 13.890625 38.488281 13.292969 38.179688 13.355469 37.605469 C 14.324219 32.140625 17.042969 27.128906 20.546875 22.878906 C 21.554688 21.75 22.691406 20.765625 23.742188 19.695312 C 24.214844 19.242188 24.605469 18.402344 24.007812 17.886719 C 23.433594 17.066406 22.378906 17.640625 21.660156 17.867188 C 20.773438 14.992188 21.472656 11.933594 22.585938 9.199219 C 23.390625 7.1875 24.648438 5.277344 26.378906 3.921875 Z M 29.40625 42.882812 C 27.429688 43.867188 26.75 46.414062 26.976562 48.449219 C 27.203125 50.667969 30.335938 51.714844 31.921875 50.234375 C 32.933594 49.3125 33.28125 47.957031 33.53125 46.664062 C 33.777344 45.367188 33.40625 43.785156 32.167969 43.089844 C 31.386719 42.511719 30.292969 42.472656 29.40625 42.882812 Z M 72.519531 52.679688 C 70.394531 53.132812 69.449219 55.492188 69.386719 57.445312 C 69.222656 59.066406 70.480469 60.792969 72.167969 60.894531 C 73.550781 60.976562 74.683594 59.910156 75.238281 58.757812 C 76.105469 57.175781 76.351562 55.019531 75.15625 53.542969 C 74.476562 52.863281 73.445312 52.617188 72.519531 52.679688 Z M 48.140625 54.960938 C 45.875 55.433594 44.492188 58.449219 46.078125 60.300781 C 47.726562 62.023438 50.324219 62.867188 52.695312 62.394531 C 54.632812 62.023438 55.992188 59.703125 55.0625 57.898438 C 53.890625 55.390625 50.695312 54.445312 48.140625 54.960938 Z M 15.703125 59.355469 C 16.835938 58.863281 18.03125 57.8125 19.332031 58.492188 C 20.691406 58.964844 21.144531 60.503906 20.855469 61.796875 C 20.527344 62.867188 21.390625 63.6875 21.699219 64.632812 C 19.453125 67.199219 16.980469 69.582031 14.550781 71.964844 C 13.644531 72.828125 12.757812 73.75 11.746094 74.492188 C 9.335938 72.375 7.132812 69.542969 7.007812 66.214844 C 6.84375 63.707031 7.832031 61.019531 10.015625 59.640625 C 11.683594 58.492188 13.890625 58.699219 15.703125 59.355469 Z M 26.132812 84.492188 C 28.5625 84.082031 31.160156 84.429688 33.28125 85.726562 C 36.394531 87.53125 38.269531 91.003906 38.703125 94.496094 C 39.710938 102.09375 35.117188 110.328125 27.71875 112.816406 C 24.648438 113.84375 21.0625 113.574219 18.339844 111.726562 C 15.785156 109.980469 14.160156 107.125 13.539062 104.148438 C 12.632812 99.34375 14.015625 94.25 16.960938 90.367188 C 19.207031 87.429688 22.441406 85.148438 26.132812 84.492188 Z M 68.890625 93.261719 C 71.078125 90.304688 73.363281 87.390625 75.941406 84.738281 C 76.453125 85.234375 76.949219 85.726562 77.484375 86.175781 C 78.722656 86.136719 80.125 85.890625 81.195312 86.671875 C 82.164062 87.328125 82.84375 88.683594 82.285156 89.792969 C 82.019531 90.511719 81.378906 91.25 81.832031 92.011719 C 82.511719 93.671875 82.636719 95.664062 81.648438 97.226562 C 80.351562 99.445312 77.691406 100.554688 75.199219 100.449219 C 73.097656 100.511719 71.117188 99.691406 69.285156 98.726562 C 69.199219 96.917969 68.851562 95.089844 68.890625 93.261719 Z M 37.671875 109.816406 C 46.65625 112.363281 55.972656 113.390625 65.222656 114.210938 C 64.8125 116.492188 64.234375 118.792969 62.855469 120.703125 C 61.554688 122.449219 59.988281 124.089844 57.929688 124.890625 C 54.796875 126.144531 51.335938 126.164062 48.039062 125.835938 C 45.171875 125.445312 42.265625 124.828125 39.648438 123.535156 C 37.855469 122.570312 36.085938 121.03125 35.878906 118.875 C 35.507812 115.773438 36.230469 112.570312 37.671875 109.816406 Z M 37.671875 109.816406 "/>
<path style=" stroke:none;fill-rule:evenodd;fill:rgb(0.392157%,0.392157%,0.392157%);fill-opacity:1;" d="M 24.769531 0.925781 C 27.222656 -0.863281 30.480469 0.289062 32.972656 1.457031 C 36.910156 3.203125 40.558594 5.585938 43.894531 8.296875 C 46.84375 8.214844 49.789062 8.214844 52.695312 8.789062 C 55.414062 9.367188 58.15625 9.898438 60.855469 10.660156 C 61.019531 8.542969 61.554688 6.347656 63.019531 4.722656 C 64.976562 2.628906 68.273438 1.910156 70.910156 3.121094 C 74.269531 4.496094 76 8.113281 76.660156 11.460938 C 78.90625 10.332031 81.402344 9.488281 83.957031 9.734375 C 85.335938 9.816406 86.613281 10.371094 87.871094 10.925781 C 90.632812 10.988281 93.578125 10.660156 96.15625 11.871094 C 97.886719 12.734375 98.214844 14.808594 98.503906 16.511719 C 99.226562 23.144531 97.597656 29.699219 96.074219 36.105469 C 95.867188 37.277344 95.042969 38.46875 95.558594 39.679688 C 96.710938 43.808594 96.792969 48.140625 96.671875 52.390625 C 98.050781 52.699219 99.410156 53.070312 100.792969 53.378906 C 102.460938 53.746094 104.253906 54.078125 105.636719 55.144531 C 106.234375 55.574219 105.902344 56.828125 105.097656 56.707031 C 102.050781 56.683594 99.246094 55.125 96.175781 55.226562 C 95.660156 56.234375 95.578125 57.363281 95.25 58.410156 C 94.980469 59.375 94.546875 60.277344 94.320312 61.246094 C 95.0625 62.25 96.382812 62.433594 97.476562 62.949219 C 98.730469 63.542969 100.09375 64.078125 101.101562 65.085938 C 101.429688 65.371094 101.328125 65.863281 101.410156 66.234375 C 99.742188 66.6875 98.195312 65.761719 96.652344 65.289062 C 95.496094 64.960938 94.320312 64.367188 93.105469 64.46875 C 91.683594 66.070312 90.675781 68.023438 89.273438 69.625 C 91.105469 71.535156 93.558594 72.746094 95.394531 74.65625 C 95.660156 74.984375 95.929688 75.394531 95.886719 75.847656 C 95.765625 76.359375 95.207031 76.566406 94.835938 76.875 C 91.953125 75.742188 89.851562 73.28125 86.984375 72.128906 C 82.574219 75.804688 76.949219 77.839844 71.28125 78.453125 C 74.042969 79.503906 76.226562 81.554688 78.640625 83.179688 C 81.113281 82.933594 83.730469 84.125 84.863281 86.402344 C 85.75 87.964844 85.625 89.855469 84.882812 91.457031 C 85.128906 92.648438 85.480469 93.859375 85.378906 95.089844 C 85.253906 98.152344 83.152344 100.882812 80.472656 102.238281 C 77.03125 104.003906 72.847656 103.695312 69.386719 102.113281 C 69.367188 104.601562 69.488281 107.085938 69.117188 109.527344 C 68.625 112.957031 68.273438 116.492188 66.914062 119.714844 C 65.203125 123.636719 61.886719 127.027344 57.703125 128.238281 C 53.023438 129.613281 47.976562 129.183594 43.296875 127.992188 C 40.472656 127.210938 37.589844 126.226562 35.363281 124.234375 C 32.191406 121.503906 32.191406 116.636719 33.757812 113.019531 C 30.601562 115.421875 26.605469 116.859375 22.628906 116.429688 C 19.0625 116.082031 15.640625 114.210938 13.5 111.355469 C 10.984375 108.132812 9.976562 103.921875 10.242188 99.898438 C 10.574219 95.089844 12.613281 90.386719 15.953125 86.894531 C 17.003906 85.871094 17.640625 84.535156 18.445312 83.324219 C 14.839844 81.371094 11.683594 78.660156 8.71875 75.847656 C 6.058594 73.238281 3.855469 69.746094 3.957031 65.886719 C 3.8125 62.742188 5.050781 59.476562 7.503906 57.425781 C 8.820312 56.273438 10.574219 55.699219 12.304688 55.492188 C 11.683594 54.054688 11.171875 52.597656 10.632812 51.117188 C 10.429688 50.480469 9.6875 50.339844 9.089844 50.316406 C 7.296875 50.277344 5.484375 50.214844 3.75 49.703125 C 3.113281 49.496094 3.277344 48.570312 3.855469 48.40625 C 5.75 47.648438 7.851562 47.792969 9.851562 47.566406 C 9.832031 46.148438 9.5625 44.753906 9.5625 43.316406 C 9.523438 42.390625 9.644531 41.464844 9.480469 40.5625 C 8.839844 39.945312 7.875 40.089844 7.070312 39.945312 C 5.089844 39.679688 3.113281 39.578125 1.15625 39.308594 C 0.640625 39.226562 -0.144531 38.898438 0.0234375 38.222656 C 0.207031 37.585938 0.96875 37.359375 1.546875 37.234375 C 4.246094 36.785156 6.945312 37.398438 9.625 37.523438 C 10.304688 37.234375 10.140625 36.351562 10.367188 35.777344 C 11.5625 30.230469 14.445312 25.136719 18.28125 20.96875 C 17.847656 16.984375 17.640625 12.773438 19.207031 8.976562 C 20.277344 5.851562 22.238281 3.058594 24.769531 0.925781 Z M 26.378906 3.921875 C 24.648438 5.277344 23.390625 7.1875 22.585938 9.199219 C 21.472656 11.933594 20.773438 14.992188 21.660156 17.867188 C 22.378906 17.640625 23.433594 17.066406 24.007812 17.886719 C 24.605469 18.402344 24.214844 19.242188 23.742188 19.695312 C 22.691406 20.765625 21.554688 21.75 20.546875 22.878906 C 17.042969 27.128906 14.324219 32.140625 13.355469 37.605469 C 13.292969 38.179688 13.890625 38.488281 14.34375 38.671875 C 15.785156 39.1875 17.539062 39.246094 18.652344 40.460938 C 19.207031 40.992188 18.464844 41.875 17.828125 41.855469 C 16.179688 41.671875 14.632812 40.828125 12.921875 41.015625 C 12.695312 43.089844 12.859375 45.203125 13.25 47.257812 C 13.417969 47.339844 13.703125 47.503906 13.847656 47.605469 C 14.839844 47.710938 15.867188 47.628906 16.816406 47.894531 C 17.476562 48.078125 18.074219 48.960938 17.414062 49.496094 C 16.28125 49.90625 15.023438 49.640625 13.871094 49.96875 C 14.34375 52.144531 15.210938 54.261719 16.425781 56.128906 C 17.476562 55.84375 18.589844 55.597656 19.679688 55.78125 C 21.433594 56.007812 22.976562 57.300781 23.574219 58.945312 C 23.945312 59.929688 23.617188 61.039062 24.03125 62.023438 C 24.628906 63.175781 25.679688 64.015625 26.6875 64.796875 C 29.242188 66.75 32.210938 68.0625 35.15625 69.273438 C 41.132812 71.699219 47.398438 73.382812 53.746094 74.511719 C 59.101562 75.457031 64.585938 75.949219 70.027344 75.4375 C 74.992188 74.941406 80.183594 73.585938 83.976562 70.15625 C 83.359375 69.644531 82.65625 69.214844 82.183594 68.578125 C 82.058594 68.0625 82.183594 67.46875 82.679688 67.222656 C 83.996094 66.953125 85.046875 68.207031 86.367188 67.941406 C 87.789062 66.542969 89.003906 64.941406 89.890625 63.152344 C 89.167969 62.558594 88.160156 62.332031 87.5625 61.613281 C 87.210938 61.265625 87.292969 60.546875 87.789062 60.402344 C 88.800781 60.011719 89.828125 60.566406 90.839844 60.667969 C 91.355469 60.585938 91.417969 59.972656 91.621094 59.601562 C 92.179688 58.101562 92.796875 56.582031 92.878906 54.980469 L 92.753906 54.753906 C 91.210938 54.324219 89.539062 54.691406 87.996094 54.28125 C 87.148438 53.933594 86.964844 52.761719 87.832031 52.308594 C 89.519531 51.941406 91.292969 52.1875 92.980469 51.941406 C 93.394531 51.941406 93.703125 51.550781 93.664062 51.179688 C 94.011719 47.382812 93.640625 43.480469 92.28125 39.882812 C 92.117188 39.535156 92.074219 39.144531 92.242188 38.777344 C 93.683594 34.277344 94.796875 29.675781 95.476562 24.996094 C 95.703125 23.597656 95.660156 22.179688 95.703125 20.765625 C 95.703125 18.9375 95.683594 16.984375 94.816406 15.320312 C 93.765625 14.253906 92.117188 14.398438 90.757812 14.273438 C 91.355469 15.835938 91.519531 17.601562 90.859375 19.183594 C 90.097656 21.277344 88.222656 22.695312 86.304688 23.722656 C 87.851562 25.242188 89.253906 27.027344 89.871094 29.144531 C 90.386719 30.992188 90.222656 33.085938 89.148438 34.710938 C 87.890625 36.476562 85.851562 37.75 83.648438 37.726562 C 80.433594 37.832031 77.421875 36.1875 75.199219 33.96875 C 74.332031 36.042969 73.117188 38.058594 71.199219 39.332031 C 69.882812 40.171875 68.355469 40.910156 66.726562 40.851562 C 63.988281 40.851562 61.328125 38.980469 60.464844 36.371094 C 59.761719 34.257812 60.050781 31.976562 60.546875 29.863281 C 58.113281 29.65625 55.683594 29.0625 53.582031 27.808594 C 51.601562 26.617188 50.285156 24.460938 50.058594 22.179688 C 49.953125 19.695312 51.582031 17.417969 53.664062 16.164062 C 55.972656 14.644531 58.875 14.539062 61.554688 14.808594 C 61.472656 14.664062 61.289062 14.398438 61.207031 14.273438 C 59.082031 13.535156 56.835938 13.164062 54.652344 12.652344 C 51.191406 11.828125 47.625 11.542969 44.058594 11.625 C 42.207031 11.746094 40.988281 10.1875 39.710938 9.140625 C 36.765625 6.941406 33.652344 4.910156 30.148438 3.738281 C 28.953125 3.367188 27.449219 3.101562 26.378906 3.921875 Z M 64.378906 7.230469 C 63.328125 9.015625 63.347656 11.191406 63.597656 13.183594 C 63.78125 14.726562 64.648438 16.121094 64.503906 17.703125 C 62.214844 17.683594 59.949219 16.902344 57.660156 17.3125 C 55.601562 17.601562 53.539062 18.792969 52.734375 20.765625 C 52.179688 22.695312 53.128906 24.953125 54.960938 25.835938 C 57.558594 27.316406 60.628906 27.378906 63.535156 27.542969 C 63.761719 28.957031 62.855469 30.191406 62.710938 31.566406 C 62.503906 33.230469 62.296875 35.097656 63.308594 36.558594 C 64.089844 37.914062 65.78125 38.488281 67.285156 38.34375 C 69.488281 37.996094 71.261719 36.289062 72.25 34.359375 C 73.035156 32.984375 73.179688 31.339844 73.960938 29.945312 C 74.207031 29.964844 74.664062 29.984375 74.890625 30.007812 C 76.351562 31.585938 77.773438 33.292969 79.710938 34.320312 C 81.132812 35.097656 82.863281 35.449219 84.472656 35.097656 C 85.894531 34.75 87.316406 33.703125 87.519531 32.164062 C 88.015625 29.964844 86.71875 27.871094 85.316406 26.289062 C 84.449219 25.242188 83.171875 24.644531 82.265625 23.640625 C 82.265625 23.371094 82.265625 23.105469 82.265625 22.839844 C 83.8125 22.179688 85.398438 21.503906 86.757812 20.515625 C 87.808594 19.695312 88.714844 18.523438 88.714844 17.148438 C 88.839844 15.648438 88.117188 14.128906 86.839844 13.351562 C 84.882812 12.015625 82.285156 11.953125 80.101562 12.773438 C 78.207031 13.328125 76.660156 14.644531 74.804688 15.28125 C 74.1875 13.390625 74.269531 11.316406 73.445312 9.488281 C 72.703125 7.785156 71.570312 6.039062 69.738281 5.402344 C 67.839844 4.621094 65.328125 5.359375 64.378906 7.230469 Z M 15.703125 59.355469 C 13.890625 58.699219 11.683594 58.492188 10.015625 59.640625 C 7.832031 61.019531 6.84375 63.707031 7.007812 66.214844 C 7.132812 69.542969 9.335938 72.375 11.746094 74.492188 C 12.757812 73.75 13.644531 72.828125 14.550781 71.964844 C 16.980469 69.582031 19.453125 67.199219 21.699219 64.632812 C 21.390625 63.6875 20.527344 62.867188 20.855469 61.796875 C 21.144531 60.503906 20.691406 58.964844 19.332031 58.492188 C 18.03125 57.8125 16.835938 58.863281 15.703125 59.355469 Z M 18.691406 72.5 C 17.289062 74.039062 15.640625 75.292969 14.179688 76.75 C 15.929688 78.207031 17.640625 79.789062 19.761719 80.671875 C 22.257812 77.097656 24.894531 73.628906 27.78125 70.382812 C 28.027344 70.074219 28.417969 69.789062 28.316406 69.355469 C 27.492188 68.636719 26.5625 68.042969 25.738281 67.324219 C 25.347656 67.035156 24.996094 66.605469 24.484375 66.523438 C 22.441406 68.390625 20.648438 70.527344 18.691406 72.5 Z M 31.035156 71.164062 C 27.839844 74.71875 25.019531 78.578125 22.339844 82.523438 C 25.964844 80.960938 30.292969 80.859375 33.878906 82.625 C 37.855469 84.492188 40.515625 88.476562 41.441406 92.707031 C 42.492188 97.617188 41.402344 102.832031 39.011719 107.1875 C 47.707031 109.34375 56.609375 110.988281 65.59375 111.171875 C 66.046875 108.933594 66.273438 106.675781 66.296875 104.394531 C 66.605469 95.746094 65.246094 87.140625 63.410156 78.722656 C 61.515625 78.621094 59.640625 78.414062 57.765625 78.289062 C 56.734375 81.351562 54.835938 84.183594 52.078125 85.910156 C 49.808594 87.308594 46.984375 87.675781 44.390625 87.140625 C 41.421875 86.628906 38.476562 85.007812 36.972656 82.316406 C 35.40625 79.480469 35.238281 76.113281 35.691406 72.972656 C 34.148438 72.355469 32.5625 71.820312 31.035156 71.164062 Z M 38.433594 73.832031 C 38.105469 75.765625 37.898438 77.796875 38.433594 79.707031 C 38.867188 81.414062 40.082031 82.871094 41.648438 83.691406 C 44.101562 85.007812 47.234375 85.621094 49.828125 84.308594 C 52.386719 83.035156 53.765625 80.363281 54.777344 77.816406 C 49.253906 76.832031 43.75 75.683594 38.433594 73.832031 Z M 66.726562 79.894531 C 67.449219 82.910156 68.109375 85.953125 68.480469 89.050781 C 70.066406 87.019531 71.878906 85.148438 73.40625 83.074219 C 71.363281 81.679688 69.179688 80.386719 66.726562 79.894531 Z M 26.132812 84.492188 C 22.441406 85.148438 19.207031 87.429688 16.960938 90.367188 C 14.015625 94.25 12.632812 99.34375 13.539062 104.148438 C 14.160156 107.125 15.785156 109.980469 18.339844 111.726562 C 21.0625 113.574219 24.648438 113.84375 27.71875 112.816406 C 35.117188 110.328125 39.710938 102.09375 38.703125 94.496094 C 38.269531 91.003906 36.394531 87.53125 33.28125 85.726562 C 31.160156 84.429688 28.5625 84.082031 26.132812 84.492188 Z M 68.890625 93.261719 C 68.851562 95.089844 69.199219 96.917969 69.285156 98.726562 C 71.117188 99.691406 73.097656 100.511719 75.199219 100.449219 C 77.691406 100.554688 80.351562 99.445312 81.648438 97.226562 C 82.636719 95.664062 82.511719 93.671875 81.832031 92.011719 C 81.378906 91.25 82.019531 90.511719 82.285156 89.792969 C 82.84375 88.683594 82.164062 87.328125 81.195312 86.671875 C 80.125 85.890625 78.722656 86.136719 77.484375 86.175781 C 76.949219 85.726562 76.453125 85.234375 75.941406 84.738281 C 73.363281 87.390625 71.078125 90.304688 68.890625 93.261719 Z M 37.671875 109.816406 C 36.230469 112.570312 35.507812 115.773438 35.878906 118.875 C 36.085938 121.03125 37.855469 122.570312 39.648438 123.535156 C 42.265625 124.828125 45.171875 125.445312 48.039062 125.835938 C 51.335938 126.164062 54.796875 126.144531 57.929688 124.890625 C 59.988281 124.089844 61.554688 122.449219 62.855469 120.703125 C 64.234375 118.792969 64.8125 116.492188 65.222656 114.210938 C 55.972656 113.390625 46.65625 112.363281 37.671875 109.816406 Z M 69.796875 17.804688 C 70.726562 17.394531 71.777344 17.457031 72.746094 17.582031 C 74.867188 18.15625 76.515625 20.351562 76.167969 22.570312 C 75.980469 25.179688 73.136719 27.046875 70.664062 26.433594 C 69.058594 26.164062 67.800781 24.914062 67.140625 23.496094 C 66.296875 21.277344 67.613281 18.648438 69.796875 17.804688 Z M 70.871094 19.242188 C 68.953125 19.738281 68.171875 22.386719 69.53125 23.84375 C 71.015625 25.46875 74.269531 24.5 74.332031 22.179688 C 74.703125 20.3125 72.558594 18.894531 70.871094 19.242188 Z M 29.40625 42.882812 C 30.292969 42.472656 31.386719 42.511719 32.167969 43.089844 C 33.40625 43.785156 33.777344 45.367188 33.53125 46.664062 C 33.28125 47.957031 32.933594 49.3125 31.921875 50.234375 C 30.335938 51.714844 27.203125 50.667969 26.976562 48.449219 C 26.75 46.414062 27.429688 43.867188 29.40625 42.882812 Z M 72.519531 52.679688 C 73.445312 52.617188 74.476562 52.863281 75.15625 53.542969 C 76.351562 55.019531 76.105469 57.175781 75.238281 58.757812 C 74.683594 59.910156 73.550781 60.976562 72.167969 60.894531 C 70.480469 60.792969 69.222656 59.066406 69.386719 57.445312 C 69.449219 55.492188 70.394531 53.132812 72.519531 52.679688 Z M 48.140625 54.960938 C 50.695312 54.445312 53.890625 55.390625 55.0625 57.898438 C 55.992188 59.703125 54.632812 62.023438 52.695312 62.394531 C 50.324219 62.867188 47.726562 62.023438 46.078125 60.300781 C 44.492188 58.449219 45.875 55.433594 48.140625 54.960938 Z M 48.449219 56.765625 C 47.75 56.992188 47.253906 57.648438 47.152344 58.347656 C 47.109375 59.128906 47.707031 59.722656 48.324219 60.09375 C 49.625 60.832031 51.292969 61.265625 52.695312 60.585938 C 53.558594 60.21875 53.558594 59.046875 53.230469 58.308594 C 52.199219 56.828125 50.140625 56.335938 48.449219 56.765625 Z M 48.449219 56.765625 "/>
<path style=" stroke:none;fill-rule:evenodd;fill:rgb(96.078431%,29.019608%,60%);fill-opacity:1;" d="M 64.378906 7.230469 C 65.328125 5.359375 67.839844 4.621094 69.738281 5.402344 C 71.570312 6.039062 72.703125 7.785156 73.445312 9.488281 C 74.269531 11.316406 74.1875 13.390625 74.804688 15.28125 C 76.660156 14.644531 78.207031 13.328125 80.101562 12.773438 C 82.285156 11.953125 84.882812 12.015625 86.839844 13.351562 C 88.117188 14.128906 88.839844 15.648438 88.714844 17.148438 C 88.714844 18.523438 87.808594 19.695312 86.757812 20.515625 C 85.398438 21.503906 83.8125 22.179688 82.265625 22.839844 C 82.265625 23.105469 82.265625 23.371094 82.265625 23.640625 C 83.171875 24.644531 84.449219 25.242188 85.316406 26.289062 C 86.71875 27.871094 88.015625 29.964844 87.519531 32.164062 C 87.316406 33.703125 85.894531 34.75 84.472656 35.097656 C 82.863281 35.449219 81.132812 35.097656 79.710938 34.320312 C 77.773438 33.292969 76.351562 31.585938 74.890625 30.007812 C 74.664062 29.984375 74.207031 29.964844 73.960938 29.945312 C 73.179688 31.339844 73.035156 32.984375 72.25 34.359375 C 71.261719 36.289062 69.488281 37.996094 67.285156 38.34375 C 65.78125 38.488281 64.089844 37.914062 63.308594 36.558594 C 62.296875 35.097656 62.503906 33.230469 62.710938 31.566406 C 62.855469 30.191406 63.761719 28.957031 63.535156 27.542969 C 60.628906 27.378906 57.558594 27.316406 54.960938 25.835938 C 53.128906 24.953125 52.179688 22.695312 52.734375 20.765625 C 53.539062 18.792969 55.601562 17.601562 57.660156 17.3125 C 59.949219 16.902344 62.214844 17.683594 64.503906 17.703125 C 64.648438 16.121094 63.78125 14.726562 63.597656 13.183594 C 63.347656 11.191406 63.328125 9.015625 64.378906 7.230469 Z M 69.796875 17.804688 C 67.613281 18.648438 66.296875 21.277344 67.140625 23.496094 C 67.800781 24.914062 69.058594 26.164062 70.664062 26.433594 C 73.136719 27.046875 75.980469 25.179688 76.167969 22.570312 C 76.515625 20.351562 74.867188 18.15625 72.746094 17.582031 C 71.777344 17.457031 70.726562 17.394531 69.796875 17.804688 Z M 18.691406 72.5 C 20.648438 70.527344 22.441406 68.390625 24.484375 66.523438 C 24.996094 66.605469 25.347656 67.035156 25.738281 67.324219 C 26.5625 68.042969 27.492188 68.636719 28.316406 69.355469 C 28.417969 69.789062 28.027344 70.074219 27.78125 70.382812 C 24.894531 73.628906 22.257812 77.097656 19.761719 80.671875 C 17.640625 79.789062 15.929688 78.207031 14.179688 76.75 C 15.640625 75.292969 17.289062 74.039062 18.691406 72.5 Z M 38.433594 73.832031 C 43.75 75.683594 49.253906 76.832031 54.777344 77.816406 C 53.765625 80.363281 52.386719 83.035156 49.828125 84.308594 C 47.234375 85.621094 44.101562 85.007812 41.648438 83.691406 C 40.082031 82.871094 38.867188 81.414062 38.433594 79.707031 C 37.898438 77.796875 38.105469 75.765625 38.433594 73.832031 Z M 66.726562 79.894531 C 69.179688 80.386719 71.363281 81.679688 73.40625 83.074219 C 71.878906 85.148438 70.066406 87.019531 68.480469 89.050781 C 68.109375 85.953125 67.449219 82.910156 66.726562 79.894531 Z M 66.726562 79.894531 "/>
<path style=" stroke:none;fill-rule:evenodd;fill:rgb(99.215686%,69.803922%,5.490196%);fill-opacity:1;" d="M 70.871094 19.242188 C 72.558594 18.894531 74.703125 20.3125 74.332031 22.179688 C 74.269531 24.5 71.015625 25.46875 69.53125 23.84375 C 68.171875 22.386719 68.953125 19.738281 70.871094 19.242188 Z M 48.449219 56.765625 C 50.140625 56.335938 52.199219 56.828125 53.230469 58.308594 C 53.558594 59.046875 53.558594 60.21875 52.695312 60.585938 C 51.292969 61.265625 49.625 60.832031 48.324219 60.09375 C 47.707031 59.722656 47.109375 59.128906 47.152344 58.347656 C 47.253906 57.648438 47.75 56.992188 48.449219 56.765625 Z M 48.449219 56.765625 "/>
<path style=" stroke:none;fill-rule:evenodd;fill:rgb(98.039216%,66.27451%,82.352941%);fill-opacity:1;" d="M 31.035156 71.164062 C 32.5625 71.820312 34.148438 72.355469 35.691406 72.972656 C 35.238281 76.113281 35.40625 79.480469 36.972656 82.316406 C 38.476562 85.007812 41.421875 86.628906 44.390625 87.140625 C 46.984375 87.675781 49.808594 87.308594 52.078125 85.910156 C 54.835938 84.183594 56.734375 81.351562 57.765625 78.289062 C 59.640625 78.414062 61.515625 78.621094 63.410156 78.722656 C 65.246094 87.140625 66.605469 95.746094 66.296875 104.394531 C 66.273438 106.675781 66.046875 108.933594 65.59375 111.171875 C 56.609375 110.988281 47.707031 109.34375 39.011719 107.1875 C 41.402344 102.832031 42.492188 97.617188 41.441406 92.707031 C 40.515625 88.476562 37.855469 84.492188 33.878906 82.625 C 30.292969 80.859375 25.964844 80.960938 22.339844 82.523438 C 25.019531 78.578125 27.839844 74.71875 31.035156 71.164062 Z M 31.035156 71.164062 "/>
</g>
</svg>
