<?xml version="1.0" encoding="UTF-8"?>
<svg xmlns="http://www.w3.org/2000/svg" xmlns:xlink="http://www.w3.org/1999/xlink" width="80px" height="80px" viewBox="0 0 80 80" version="1.1">
<g id="surface1">
<path style=" stroke:none;fill-rule:nonzero;fill:rgb(0%,0%,0%);fill-opacity:1;" d="M 36.140625 17.085938 C 34.460938 17.359375 32.792969 18.140625 31.714844 19.167969 C 30.160156 20.640625 28.984375 23.234375 28.773438 25.667969 C 28.710938 26.507812 28.671875 26.574219 28.328125 26.4375 C 27.351562 26.042969 27.238281 26.019531 26.164062 26.019531 C 25.226562 26.019531 25.042969 26.042969 24.636719 26.214844 C 22.96875 26.902344 21.65625 28.320312 20.839844 30.320312 L 20.558594 31 L 20.59375 32.25 C 20.617188 33.507812 20.617188 33.507812 20.914062 34.125 L 21.199219 34.730469 L 20.746094 34.78125 C 16.492188 35.226562 15.226562 35.507812 13.449219 36.390625 C 11.273438 37.460938 10.183594 38.734375 9.40625 41.113281 C 9.023438 42.28125 8.933594 43.027344 8.992188 44.636719 C 9.046875 46.195312 9.160156 46.734375 9.609375 47.695312 C 10.542969 49.703125 12.320312 51.199219 14.363281 51.722656 C 15.5 52.007812 17.789062 51.914062 19.136719 51.511719 C 19.375 51.449219 19.984375 51.175781 20.480469 50.914062 C 20.984375 50.65625 21.433594 50.441406 21.480469 50.441406 C 21.539062 50.449219 21.777344 50.738281 22.019531 51.089844 C 23.210938 52.835938 25.523438 54.21875 28.140625 54.773438 C 29.214844 54.996094 31.257812 55.050781 32.472656 54.890625 C 35.09375 54.546875 37.214844 53.609375 38.816406 52.089844 C 39.253906 51.671875 39.734375 51.050781 40.222656 50.257812 C 40.441406 49.921875 40.640625 49.640625 40.671875 49.640625 C 40.710938 49.640625 40.96875 49.976562 41.25 50.375 C 42.488281 52.203125 44.585938 53.796875 46.476562 54.347656 C 47.453125 54.636719 48.078125 54.707031 49.230469 54.660156 C 51.007812 54.585938 52.53125 54.097656 54.019531 53.113281 C 54.820312 52.59375 56.042969 51.402344 56.878906 50.335938 C 57.183594 49.953125 57.460938 49.640625 57.492188 49.640625 C 57.527344 49.640625 57.796875 49.863281 58.101562 50.144531 C 59.246094 51.191406 60.015625 51.5625 61.808594 51.929688 C 62.585938 52.082031 64.476562 52.105469 65.15625 51.96875 C 66.003906 51.800781 67.710938 51.023438 68.4375 50.480469 C 69.121094 49.984375 70.417969 48.640625 70.847656 48 C 71.699219 46.726562 72.28125 44.941406 72.355469 43.394531 C 72.402344 42.3125 72.296875 41.539062 71.984375 40.617188 C 71.578125 39.429688 71.167969 38.824219 69.976562 37.628906 C 68.496094 36.148438 67.46875 35.5 65.667969 34.90625 C 64.46875 34.523438 63.667969 34.394531 62.371094 34.394531 C 61.023438 34.402344 60.335938 34.53125 59.449219 34.941406 L 58.855469 35.210938 L 58.808594 34.882812 C 58.398438 32.320312 57.964844 30.984375 57.125 29.703125 C 56.011719 28.007812 54.585938 26.957031 52.714844 26.453125 C 52.074219 26.285156 51.679688 26.238281 50.664062 26.203125 C 49.296875 26.15625 48.558594 26.230469 47.300781 26.550781 C 46.878906 26.652344 46.476562 26.742188 46.414062 26.742188 C 46.324219 26.742188 46.261719 26.523438 46.15625 25.957031 C 45.851562 24.179688 45.40625 22.800781 44.753906 21.617188 C 43.507812 19.351562 41.648438 17.804688 39.429688 17.214844 C 38.613281 16.996094 37.0625 16.933594 36.140625 17.085938 Z M 39.191406 19.574219 C 40.824219 20.015625 42.515625 21.386719 43.523438 23.082031 C 44.460938 24.660156 44.996094 26.726562 44.996094 28.757812 L 44.996094 29.207031 L 45.675781 28.933594 C 47.0625 28.375 48.488281 28.101562 49.984375 28.101562 C 52.410156 28.109375 54.339844 29.230469 55.613281 31.386719 C 56.332031 32.609375 56.757812 34.019531 57.011719 36.101562 C 57.101562 36.828125 57.191406 37.445312 57.214844 37.460938 C 57.230469 37.476562 57.445312 37.359375 57.6875 37.183594 C 58.71875 36.445312 58.886719 36.339844 59.367188 36.195312 C 62.828125 35.125 67.476562 37.230469 69.214844 40.648438 C 70.3125 42.808594 69.871094 45.917969 68.191406 47.886719 C 67.664062 48.503906 66.574219 49.480469 65.957031 49.894531 C 65.53125 50.175781 64.59375 50.570312 63.851562 50.785156 C 62.976562 51.03125 61.722656 51.007812 60.890625 50.738281 C 59.785156 50.375 58.878906 49.71875 58.261719 48.839844 C 58.117188 48.640625 57.804688 48.09375 57.558594 47.613281 L 57.117188 46.75 L 56.460938 47.820312 C 54.828125 50.503906 53.644531 51.714844 51.671875 52.707031 C 50.578125 53.257812 50.078125 53.363281 48.597656 53.363281 C 47.125 53.355469 46.710938 53.273438 45.628906 52.800781 C 43.707031 51.960938 42.289062 50.480469 41.03125 48.023438 C 40.769531 47.503906 40.535156 47.078125 40.511719 47.078125 C 40.488281 47.085938 40.296875 47.542969 40.070312 48.09375 C 39.160156 50.433594 38.085938 51.640625 36.027344 52.617188 C 34.492188 53.355469 33.617188 53.554688 31.738281 53.617188 C 30.144531 53.667969 29.464844 53.601562 28.152344 53.273438 C 26.835938 52.945312 26.085938 52.570312 25.003906 51.707031 C 23.898438 50.816406 23.355469 50.03125 22.738281 48.480469 C 22.601562 48.125 22.464844 47.8125 22.449219 47.78125 C 22.425781 47.742188 22.121094 48.078125 21.769531 48.519531 C 20.351562 50.289062 19.207031 50.824219 17.023438 50.746094 C 16.164062 50.710938 15.875 50.664062 15.4375 50.503906 C 13.769531 49.878906 12.488281 48.65625 11.859375 47.054688 C 10.898438 44.644531 11.433594 41.175781 13.035156 39.367188 C 14.789062 37.398438 17.398438 36.5 21.976562 36.308594 C 22.59375 36.285156 23.363281 36.246094 23.683594 36.222656 L 24.257812 36.171875 L 23.546875 35.421875 C 22.640625 34.453125 22.402344 34.019531 22.355469 33.273438 C 22.265625 31.875 22.851562 30.480469 24.035156 29.296875 C 24.507812 28.816406 24.796875 28.597656 25.347656 28.328125 C 26.042969 27.980469 26.0625 27.980469 26.894531 27.980469 C 27.695312 27.980469 27.773438 28 28.261719 28.246094 C 28.550781 28.390625 29.03125 28.695312 29.335938 28.910156 C 29.640625 29.136719 29.910156 29.289062 29.945312 29.246094 C 29.984375 29.214844 30.046875 28.664062 30.105469 28.023438 C 30.222656 26.476562 30.375 25.546875 30.625 24.789062 C 31.105469 23.324219 32.144531 21.730469 33.164062 20.90625 C 34.019531 20.207031 35.226562 19.664062 36.40625 19.457031 C 36.972656 19.351562 38.632812 19.421875 39.191406 19.574219 Z M 39.191406 19.574219 "/>
</g>
</svg>
